<svg xmlns="http://www.w3.org/2000/svg" viewBox="0 0 24 24" fill="none">
    <path
        d="M18.5 7.84656v-5M5.5 20.8466v-5M16 5.34656h5M3 18.3466H8M6.5 1.84656 5.71554 3.41547c-.26549.53098-.39823.79647-.57557 1.02653C4.98261 4.64615 4.79959 4.82917 4.59545 4.98653c-.23007.17734-.49555.31008-1.02653.57557L2 6.34656l1.56892.78446c.53098.26549.79646.39823 1.02653.57557C4.79959 7.86395 4.98261 8.04696 5.13997 8.25111c.17734.23006.31008.49555.57557 1.02653L6.5 10.8466l.78446-1.56896C7.54995 8.74666 7.68269 8.48117 7.86003 8.25111 8.01739 8.04696 8.20041 7.86395 8.40455 7.70659 8.63462 7.52925 8.9001 7.3965 9.43108 7.13102L11 6.34656 9.43108 5.5621c-.53098-.26549-.79646-.39823-1.02653-.57557C8.20041 4.82917 8.01739 4.64615 7.86003 4.442c-.17734-.23006-.31008-.49555-.57557-1.02653L6.5 1.84656zM17 11.8466l-.9511 1.9022C15.7834 14.2798 15.6506 14.5453 15.4733 14.7753 15.3159 14.9795 15.1329 15.1625 14.9288 15.3199 14.6987 15.4972 14.4332 15.6299 13.9023 15.8954L12 16.8466l1.9023.9511C14.4332 18.0632 14.6987 18.1959 14.9288 18.3733 15.1329 18.5306 15.3159 18.7136 15.4733 18.9178c.177300000000001.23.3101.4955.5756 1.0265L17 21.8466l.9511-1.9023C18.2166 19.4133 18.3494 19.1478 18.5267 18.9178 18.6841 18.7136 18.8671 18.5306 19.0712 18.3733 19.3013 18.1959 19.5668 18.0632 20.0977 17.7977L22 16.8466 20.0977 15.8954C19.5668 15.6299 19.3013 15.4972 19.0712 15.3199 18.8671 15.1625 18.6841 14.9795 18.5267 14.7753 18.3494 14.5453 18.2166 14.2798 17.9511 13.7488L17 11.8466z"
        stroke="currentcolor" stroke-width="2" stroke-linecap="round" stroke-linejoin="round"
        fill="none"></path>
</svg>