<svg viewBox="0 0 24 24" xmlns="http://www.w3.org/2000/svg" fill="none">
    <path
        d="M23.6087 10.3866C23.0202 9.98965 21.4744 9.81999 20.3501 10.1235 20.2896 9.00129 19.7119 8.05574 18.656 7.23081L18.2647 6.96776 18.0038 7.36233C17.4914 8.14134 17.2763 9.17951 17.3524 10.1235 17.413 10.7048 17.6148 11.3586 18.0038 11.8333c-1.4627.8506-2.8113.6576-8.78345.6576H.00209363C-.0250805 13.8427.192313 16.4428 1.8414 18.5588 2.02385 18.7923 2.22339 19.0187 2.44001 19.2366c1.34085 1.3464 3.36726 2.3332 6.39757 2.3363C13.4603 21.5768 17.4207 19.0724 19.8299 13.017 20.6226 13.0302 22.715 13.1594 23.7391 11.1757 23.764 11.1422 24 10.6496 24 10.6496L23.6087 10.3866zM6.01846 8.99195H3.42604V11.5905H6.01846V8.99195zm3.34941.0H6.77545V11.5905H9.36787V8.99195zm3.34943.0H10.1249V11.5905h2.5924V8.99195zm3.3494.0H13.4743V11.5905h2.5924V8.99195zm-13.39843.0H.0766285V11.5905H2.66905L2.66827 8.99195zM6.01768 5.70936H3.42526V8.30788H6.01768V5.70936zm3.34941.0H6.77468V8.30788H9.36709V5.70936zm3.34941.0H10.1241V8.30788h2.5924V5.70936zm0-3.2826H10.1241V5.02529h2.5924V2.42676z"
        fill="#0d4df2"></path>
</svg>