
<svg version="1.0" xmlns="http://www.w3.org/2000/svg"
 width="700.000000pt" height="700.000000pt" viewBox="0 0 700.000000 700.000000"
 preserveAspectRatio="xMidYMid meet">
<g transform="translate(0.000000,700.000000) scale(0.100000,-0.100000)"
fill="#00ff04ff" stroke="none">
<path d="M3280 6994 c-19 -2 -84 -9 -145 -14 -639 -62 -1264 -315 -1795 -726
-149 -115 -481 -446 -595 -594 -410 -532 -653 -1132 -727 -1795 -17 -155 -17
-575 0 -730 75 -673 332 -1300 748 -1820 114 -143 339 -372 484 -494 456 -383
989 -638 1578 -756 46 -9 89 -14 96 -12 9 4 15 41 20 119 17 283 74 714 112
839 4 14 -22 17 -228 22 -442 13 -732 54 -1013 144 -510 164 -826 461 -969
913 -184 580 -115 1099 186 1400 237 238 578 293 817 133 35 -24 66 -42 68
-40 2 3 -8 40 -21 83 -52 166 -103 390 -132 584 -24 163 -30 547 -10 695 52
390 183 668 422 895 202 191 464 320 786 385 596 120 1188 -38 1589 -423 210
-201 333 -411 406 -688 27 -104 28 -119 28 -332 0 -122 1 -222 2 -222 2 0 24
15 50 34 105 75 233 127 359 146 179 27 364 -35 507 -169 53 -50 77 -82 107
-145 53 -113 65 -171 64 -316 0 -147 -22 -248 -81 -386 -101 -234 -317 -470
-548 -599 -36 -20 -65 -40 -65 -43 0 -4 53 -7 118 -8 307 -1 584 -151 705
-381 107 -203 89 -451 -52 -732 -205 -407 -530 -656 -1050 -806 -282 -81 -547
-114 -970 -122 l-313 -6 6 -86 c4 -47 18 -156 32 -241 27 -171 131 -640 144
-654 17 -17 328 46 538 110 383 116 786 329 1129 596 138 107 389 351 512 498
451 538 717 1162 803 1885 16 139 16 595 0 730 -77 629 -275 1158 -620 1649
-234 333 -577 668 -917 896 -460 308 -968 495 -1535 566 -117 15 -552 27 -630
18z"/>
<path d="M2530 3365 l0 -1585 970 0 970 0 0 505 0 505 -600 0 -600 0 0 190 0
190 390 0 390 0 0 195 0 195 -390 0 -390 0 0 190 0 190 600 0 600 0 0 505 0
505 -970 0 -970 0 0 -1585z"/>
</g>
</svg>
